<?xml version="1.0" standalone="no"?>
<svg version="1.0" xmlns="http://www.w3.org/2000/svg"
 width="231.10pt" height="302.40pt" viewBox="9.00 -5.40 231.10 302.40"
 preserveAspectRatio="xMidYMid meet">

<g transform="translate(0.000000,559.000000) scale(0.100000,-0.100000)"
fill="#000000" stroke="none">
<path d="M456 4539 c-31 -25 -33 -57 -6 -87 27 -29 55 -28 85 3 31 30 32 55 2
83 -29 27 -47 28 -81 1z"/>
<path d="M467 4206 c-13 -10 -17 -25 -15 -53 2 -30 9 -41 32 -52 25 -12 31
-11 55 6 32 24 38 56 17 89 -19 27 -60 32 -89 10z"/>
<path d="M490 3520 c-22 -22 -24 -37 -10 -74 22 -58 110 -36 110 28 0 59 -59
87 -100 46z"/>
<path d="M487 3865 c-35 -34 -29 -82 13 -105 26 -14 67 3 82 35 23 51 -56 110
-95 70z"/>
<path d="M547 4702 c-21 -23 -22 -66 -1 -86 18 -19 75 -21 92 -4 17 17 15 74
-4 92 -21 22 -67 20 -87 -2z"/>
<path d="M551 4363 c-24 -30 -20 -58 12 -86 36 -32 97 -5 97 42 0 68 -69 96
-109 44z"/>
<path d="M583 4040 c-46 -19 -37 -91 13 -110 65 -25 113 51 64 100 -21 21 -42
24 -77 10z"/>
<path d="M580 3690 c-11 -11 -20 -31 -20 -44 0 -27 42 -66 71 -66 19 0 59 44
59 65 0 7 -9 24 -21 39 -25 31 -61 34 -89 6z"/>
<path d="M591 3346 c-18 -19 -22 -31 -16 -55 12 -55 70 -68 104 -25 27 34 26
50 -4 79 -31 31 -55 32 -84 1z"/>
<path d="M663 4550 c-27 -11 -39 -53 -25 -84 14 -31 57 -41 88 -21 32 21 33
77 2 99 -25 18 -33 19 -65 6z"/>
<path d="M662 4204 c-31 -22 -29 -67 5 -93 30 -24 58 -20 86 12 12 14 16 29
12 46 -12 49 -60 65 -103 35z"/>
<path d="M677 3862 c-26 -28 -22 -78 8 -98 41 -27 95 4 95 55 0 54 -68 82
-103 43z"/>
<path d="M681 3514 c-27 -35 -26 -49 5 -80 19 -20 31 -24 52 -19 52 12 69 68
32 105 -28 28 -64 25 -89 -6z"/>
<path d="M747 4702 c-40 -44 -6 -106 54 -100 42 4 62 38 48 77 -6 14 -16 29
-22 33 -22 14 -64 8 -80 -10z"/>
<path d="M757 4378 c-28 -22 -32 -73 -8 -97 27 -27 53 -27 87 2 21 19 26 29
20 50 -13 51 -61 73 -99 45z"/>
<path d="M775 3685 c-14 -13 -25 -31 -25 -40 0 -23 45 -65 70 -65 28 0 60 35
60 65 0 30 -32 65 -60 65 -12 0 -32 -11 -45 -25z"/>
<path d="M772 4034 c-15 -10 -22 -25 -22 -48 0 -40 20 -59 62 -59 54 0 78 63
38 103 -24 24 -48 25 -78 4z"/>
<path d="M784 3345 c-27 -27 -26 -54 4 -87 33 -38 102 -6 102 47 0 30 -32 65
-60 65 -12 0 -32 -11 -46 -25z"/>
<path d="M863 4550 c-12 -5 -25 -21 -29 -35 -20 -79 85 -120 116 -45 10 25 10
34 -4 55 -9 14 -20 25 -25 25 -5 0 -15 2 -23 4 -7 3 -23 1 -35 -4z"/>
<path d="M857 4202 c-39 -43 -2 -120 51 -107 40 10 52 24 52 61 0 55 -67 85
-103 46z"/>
<path d="M872 3864 c-26 -18 -30 -65 -7 -88 43 -42 105 -20 105 38 0 57 -51
83 -98 50z"/>
<path d="M882 3524 c-46 -32 -17 -114 40 -114 26 0 58 36 58 65 0 29 -32 65
-58 65 -10 0 -28 -7 -40 -16z"/>
<path d="M947 4702 c-22 -24 -21 -65 1 -85 22 -20 73 -22 90 -5 17 17 15 74
-4 92 -21 22 -67 20 -87 -2z"/>
<path d="M950 4370 c-28 -28 -25 -64 7 -90 48 -38 110 -4 99 54 -11 54 -68 74
-106 36z"/>
<path d="M970 3690 c-39 -39 -11 -110 43 -110 32 0 57 30 57 67 0 56 -60 83
-100 43z"/>
<path d="M960 4030 c-28 -28 -25 -64 7 -90 63 -50 140 33 83 90 -11 11 -31 20
-45 20 -14 0 -34 -9 -45 -20z"/>
<path d="M982 3354 c-45 -31 -15 -114 41 -114 54 0 79 84 35 114 -12 9 -29 16
-38 16 -9 0 -26 -7 -38 -16z"/>
<path d="M1050 4200 c-28 -28 -25 -64 6 -89 15 -12 33 -21 41 -21 21 0 63 46
63 70 0 28 -35 60 -65 60 -14 0 -34 -9 -45 -20z"/>
<path d="M1060 4547 c-20 -10 -25 -20 -25 -52 0 -32 5 -42 28 -55 24 -13 30
-13 55 0 37 21 44 81 10 104 -27 19 -35 20 -68 3z"/>
<path d="M1066 3865 c-34 -35 -28 -83 15 -105 37 -20 89 12 89 56 0 51 -69 84
-104 49z"/>
<path d="M1070 3520 c-26 -26 -25 -60 1 -89 17 -18 28 -22 53 -17 57 11 74 65
33 104 -29 27 -61 28 -87 2z"/>
<path d="M1153 4712 c-22 -14 -32 -57 -19 -83 26 -52 116 -28 116 31 0 46 -58
77 -97 52z"/>
<path d="M1146 4371 c-47 -51 14 -133 73 -100 54 30 32 119 -29 119 -15 0 -35
-9 -44 -19z"/>
<path d="M1164 3685 c-29 -29 -26 -58 8 -87 39 -34 83 -15 94 38 5 25 1 37
-15 53 -28 28 -56 27 -87 -4z"/>
<path d="M1162 4034 c-15 -10 -22 -25 -22 -48 0 -40 18 -57 61 -58 55 -2 80
61 39 102 -24 24 -48 25 -78 4z"/>
<path d="M1175 3345 c-14 -13 -25 -30 -25 -38 0 -26 41 -67 66 -67 31 0 64 33
64 65 0 30 -32 65 -60 65 -12 0 -32 -11 -45 -25z"/>
<path d="M882 5511 c-18 -5 -54 -22 -80 -38 -43 -26 -54 -29 -110 -25 -84 6
-157 -28 -201 -95 -17 -26 -31 -50 -31 -54 0 -4 -11 -10 -25 -13 -36 -9 -105
-75 -123 -116 -13 -30 -14 -175 -13 -1058 l1 -1023 -35 -78 c-55 -122 -42
-198 40 -246 l42 -25 683 0 c661 0 685 1 725 20 85 41 104 139 48 247 -30 56
-33 71 -33 148 l0 85 58 0 c196 0 342 84 416 239 l31 66 3 429 c3 412 2 432
-18 492 -39 117 -104 189 -218 242 -48 23 -73 28 -164 30 l-108 4 -2 131 c-1
73 0 164 1 202 4 90 -17 143 -76 195 -50 43 -94 60 -162 60 -34 0 -47 5 -63
25 -50 64 -158 97 -248 76 -42 -9 -47 -8 -75 18 -16 16 -46 37 -65 46 -39 20
-148 29 -198 16z m155 -110 c24 -12 51 -34 65 -55 30 -47 57 -53 113 -26 73
35 145 14 198 -60 l27 -39 74 2 c62 2 79 -2 103 -19 36 -27 57 -83 49 -128
l-7 -35 -387 0 c-381 -1 -387 -1 -404 -22 -12 -14 -18 -38 -18 -69 0 -61 -32
-100 -84 -100 -73 0 -116 42 -116 115 0 70 -9 75 -120 75 -124 0 -130 2 -130
50 0 50 30 87 83 101 53 14 63 22 71 60 3 17 21 46 40 65 39 39 79 44 139 19
20 -8 39 -15 42 -15 3 0 25 18 50 41 67 61 135 74 212 40z m-483 -477 c3 -9 6
-23 6 -31 0 -36 55 -104 104 -128 76 -38 155 -29 217 22 34 29 68 94 69 131
l0 22 360 0 360 0 0 -186 c0 -186 0 -187 -25 -210 -32 -30 -32 -68 0 -98 23
-22 25 -30 25 -121 0 -91 -2 -99 -25 -121 -32 -30 -32 -67 0 -92 24 -19 25
-25 25 -124 0 -91 -2 -106 -20 -121 -13 -11 -20 -29 -20 -52 0 -24 6 -39 20
-47 18 -12 20 -24 20 -120 0 -95 -2 -110 -20 -128 -11 -11 -20 -30 -20 -43 0
-13 9 -33 20 -45 13 -14 20 -35 20 -63 l0 -42 -23 21 c-45 42 -101 17 -99 -44
2 -61 55 -83 99 -42 l23 21 0 -42 c0 -23 -7 -53 -16 -66 -11 -17 -14 -36 -10
-55 5 -30 5 -30 -40 -30 -42 0 -44 1 -34 20 8 15 7 27 -5 50 -38 73 -133 30
-112 -50 5 -18 0 -20 -40 -20 -40 0 -44 2 -38 21 11 34 -3 66 -35 79 -25 10
-34 10 -54 -4 -30 -19 -40 -49 -26 -76 10 -19 8 -20 -39 -20 -48 0 -50 1 -42
23 11 28 -2 62 -28 76 -29 16 -49 13 -72 -10 -16 -16 -20 -29 -16 -55 l6 -34
-43 0 c-42 0 -42 0 -38 33 5 43 -34 83 -72 73 -38 -9 -62 -50 -48 -81 11 -25
11 -25 -33 -25 -44 0 -44 0 -39 29 5 23 1 35 -19 55 -32 32 -60 33 -87 4 -16
-17 -20 -31 -16 -55 5 -33 4 -33 -37 -33 l-42 0 0 42 c0 35 -4 44 -27 58 -25
14 -31 13 -55 -1 -24 -13 -28 -21 -27 -57 l1 -42 -41 0 -41 0 -3 78 -2 79 29
-5 c59 -8 93 66 50 109 -15 15 -29 20 -49 15 l-28 -5 0 113 c0 107 1 113 19
109 33 -9 69 23 69 62 0 39 -36 71 -70 62 -19 -5 -20 0 -20 106 l0 112 27 2
c78 4 74 123 -4 123 -23 0 -23 2 -23 104 0 96 2 105 20 111 11 4 27 17 35 29
21 31 3 84 -31 92 -23 6 -24 9 -24 108 0 94 2 102 22 111 12 6 26 18 32 27 14
24 -3 70 -32 83 -21 9 -22 16 -22 117 l0 108 74 0 c58 0 75 -3 80 -16z m1468
-317 c71 -41 125 -109 149 -187 19 -63 20 -89 17 -451 l-3 -384 -26 -56 c-15
-32 -46 -76 -69 -99 -60 -60 -117 -82 -227 -88 l-93 -5 0 57 0 56 66 0 c37 0
85 6 108 12 50 15 109 74 124 126 8 27 12 155 12 411 0 405 -1 415 -58 474
-44 47 -74 57 -167 58 l-85 1 0 55 0 55 103 -4 c89 -3 108 -7 149 -31z m-71
-205 l29 -32 0 -371 c0 -401 -1 -413 -55 -437 -14 -7 -55 -12 -90 -12 l-65 0
0 446 0 446 76 -4 c71 -3 78 -6 105 -36z m-232 -1446 c26 -42 27 -78 2 -100
-18 -16 -72 -18 -679 -22 -654 -4 -660 -4 -686 17 -32 25 -34 61 -6 107 l20
32 664 0 664 0 21 -34z"/>
<path d="M1253 4545 c-47 -33 -19 -115 39 -115 25 0 58 36 58 63 0 51 -56 81
-97 52z"/>
<path d="M1246 4201 c-24 -26 -17 -70 15 -94 23 -16 30 -17 50 -7 31 17 39 29
39 61 0 52 -69 79 -104 40z"/>
<path d="M1257 3862 c-26 -28 -22 -78 8 -98 41 -27 95 4 95 55 0 54 -68 82
-103 43z"/>
<path d="M1265 3520 c-25 -27 -22 -70 6 -93 26 -21 66 -16 87 10 45 60 -43
139 -93 83z"/>
<path d="M1350 4030 c-40 -40 -16 -103 38 -103 42 0 62 19 62 58 0 58 -60 85
-100 45z"/>
<path d="M1362 3694 c-46 -32 -17 -114 40 -114 28 0 58 37 58 69 0 31 -30 61
-60 61 -9 0 -26 -7 -38 -16z"/>
<path d="M1341 4364 c-27 -34 -26 -50 4 -79 27 -28 37 -30 68 -14 43 23 50 66
17 99 -28 28 -64 25 -89 -6z"/>
<path d="M1349 4710 c-25 -15 -32 -58 -14 -86 19 -30 74 -33 98 -6 48 53 -22
128 -84 92z"/>
<path d="M1369 3349 c-29 -29 -23 -79 14 -99 24 -13 30 -13 55 0 37 21 44 81
10 104 -30 22 -54 20 -79 -5z"/>
<path d="M1452 4213 c-41 -16 -31 -96 13 -113 44 -17 85 13 85 61 0 45 -50 71
-98 52z"/>
<path d="M1446 4536 c-32 -31 -33 -50 -1 -81 29 -30 58 -32 85 -5 37 37 20 93
-32 105 -21 5 -33 1 -52 -19z"/>
<path d="M1450 3860 c-25 -25 -25 -51 -2 -78 26 -30 56 -35 82 -14 27 22 30
65 5 92 -23 26 -60 25 -85 0z"/>
<path d="M1460 3520 c-11 -11 -20 -31 -20 -45 0 -29 32 -65 58 -65 57 0 86 82
40 114 -30 21 -54 20 -78 -4z"/>
<path d="M1539 4699 c-15 -15 -19 -28 -14 -47 10 -40 24 -52 60 -52 58 0 85
60 45 100 -26 26 -65 25 -91 -1z"/>
<path d="M1557 3698 c-9 -7 -19 -25 -22 -40 -5 -21 -1 -33 19 -52 32 -33 59
-33 85 0 26 33 27 58 1 84 -23 23 -58 26 -83 8z"/>
<path d="M1540 4368 c-28 -30 -25 -62 7 -88 64 -50 141 32 83 90 -26 26 -64
25 -90 -2z"/>
<path d="M1545 4030 c-22 -24 -23 -67 -2 -88 22 -21 77 -20 93 3 46 62 -39
142 -91 85z"/>
</g>
</svg>
