<?xml version="1.0" standalone="no"?>
<svg version="1.0" xmlns="http://www.w3.org/2000/svg"
 width="128.70pt" height="310.20pt" viewBox="317.70 -12.00 128.70 310.20"
 preserveAspectRatio="xMidYMid meet">

<g transform="translate(0.000000,559.000000) scale(0.100000,-0.100000)"
fill="#000000" stroke="none">
<path d="M3470 4203 c-59 -21 -50 -103 12 -118 21 -5 33 -1 52 19 32 31 33 50
1 81 -24 25 -36 28 -65 18z"/>
<path d="M3462 3864 c-26 -18 -30 -74 -6 -98 34 -35 104 -6 104 42 0 33 -8 45
-37 61 -28 14 -34 14 -61 -5z"/>
<path d="M3474 3515 c-29 -29 -26 -58 8 -87 41 -36 98 -9 98 47 0 61 -61 84
-106 40z"/>
<path d="M3480 3180 c-24 -24 -25 -48 -5 -77 28 -40 88 -34 105 12 24 64 -52
113 -100 65z"/>
<path d="M3557 4359 c-49 -38 -26 -109 36 -109 31 0 67 32 67 59 0 24 -29 57
-56 65 -13 4 -30 -1 -47 -15z"/>
<path d="M3546 4018 c-22 -30 -20 -61 4 -83 41 -37 110 -9 110 45 0 56 -82 83
-114 38z"/>
<path d="M3575 3698 c-41 -23 -47 -66 -15 -98 37 -37 87 -19 104 37 5 17 1 29
-18 48 -28 28 -41 30 -71 13z"/>
<path d="M3582 3354 c-46 -32 -17 -114 40 -114 27 0 58 37 58 68 0 53 -53 78
-98 46z"/>
<path d="M3580 3010 c-24 -24 -25 -48 -4 -78 30 -44 114 -19 114 34 0 57 -69
85 -110 44z"/>
<path d="M3647 4522 c-47 -52 9 -129 71 -100 22 11 28 21 30 53 3 29 -1 43
-14 52 -26 19 -68 16 -87 -5z"/>
<path d="M3662 3863 c-31 -28 -35 -56 -11 -86 37 -48 109 -26 109 34 0 30 -9
43 -37 58 -29 15 -37 14 -61 -6z"/>
<path d="M3649 4189 c-43 -43 6 -122 63 -100 73 28 50 120 -29 121 -7 0 -22
-9 -34 -21z"/>
<path d="M3670 3513 c-50 -64 32 -141 90 -83 28 28 25 64 -6 89 -36 28 -58 26
-84 -6z"/>
<path d="M3676 3181 c-26 -29 -18 -82 17 -101 24 -13 30 -13 55 0 55 31 34
120 -28 120 -15 0 -35 -9 -44 -19z"/>
<path d="M3768 4368 c-35 -12 -47 -58 -23 -94 23 -36 83 -31 105 9 13 24 13
30 0 53 -19 33 -47 44 -82 32z"/>
<path d="M3752 4027 c-6 -6 -13 -24 -17 -39 -13 -52 69 -92 109 -52 22 21 20
67 -2 87 -22 20 -75 22 -90 4z"/>
<path d="M3760 3690 c-41 -41 -13 -110 46 -110 51 0 75 84 32 114 -30 21 -54
20 -78 -4z"/>
<path d="M3586 5560 c-42 -51 -58 -131 -31 -166 9 -12 12 -31 8 -52 -3 -21 1
-47 12 -72 17 -38 17 -43 -13 -212 -37 -206 -52 -319 -52 -408 -1 -87 -16
-123 -83 -207 -31 -38 -71 -101 -89 -139 l-33 -69 -3 -670 c-3 -745 -5 -724
63 -784 55 -48 102 -53 485 -49 334 3 346 4 387 25 54 29 79 63 92 124 15 66
15 1245 1 1320 -15 76 -58 163 -120 239 -69 85 -76 105 -84 235 -7 111 -30
274 -64 462 -16 87 -17 106 -6 120 7 10 14 40 14 66 0 27 7 59 16 73 15 22 15
32 5 79 -8 34 -23 66 -41 85 l-28 30 -205 0 -205 0 -26 -30z m389 -70 c18 -20
17 -20 -153 -20 -95 0 -172 4 -172 8 0 26 30 32 165 32 129 0 144 -2 160 -20z
m-6 -142 c6 -17 3 -32 -11 -55 -19 -32 -19 -32 6 -170 43 -232 57 -333 66
-469 8 -140 15 -161 77 -247 30 -41 34 -51 25 -75 -16 -46 11 -82 60 -82 30 0
33 -9 43 -136 l7 -80 -37 4 c-44 5 -75 -19 -75 -59 0 -41 26 -62 70 -56 l37 5
0 -114 0 -113 -28 6 c-37 7 -84 -36 -73 -70 12 -41 36 -59 71 -54 l33 6 0
-110 0 -109 -25 0 c-31 0 -65 -33 -65 -62 0 -29 38 -68 67 -68 23 0 23 -2 23
-105 0 -105 0 -105 -24 -105 -33 0 -56 -25 -56 -60 0 -33 23 -60 51 -60 24 0
24 -21 0 -51 l-19 -24 -370 0 -370 0 -26 24 c-34 32 -33 51 1 51 55 0 83 61
46 102 -9 10 -29 18 -45 18 l-28 0 0 111 c0 75 3 108 11 104 21 -13 57 5 69
36 11 27 11 33 -7 57 -11 15 -32 28 -46 30 l-27 3 0 104 c0 102 0 103 25 109
55 14 58 94 5 116 l-30 12 0 104 c0 97 1 104 20 104 22 0 40 28 40 61 0 26
-27 59 -48 59 -12 0 -14 16 -10 95 4 86 6 97 31 123 15 15 27 37 27 48 0 10
24 49 54 86 55 69 68 93 85 164 6 22 20 49 31 59 26 24 25 65 -2 100 l-21 27
32 197 c18 108 37 214 42 236 l10 40 45 -4 c100 -7 153 25 125 78 -11 19 -20
21 -106 21 -98 0 -105 3 -85 41 10 17 23 19 151 19 136 0 140 -1 148 -22z"/>
<path d="M3776 3351 c-26 -29 -18 -82 17 -101 24 -13 30 -13 55 0 55 31 34
120 -28 120 -15 0 -35 -9 -44 -19z"/>
<path d="M3781 3011 c-25 -25 -27 -49 -5 -79 24 -34 84 -28 102 11 30 63 -48
117 -97 68z"/>
<path d="M3850 4190 c-33 -33 -24 -85 16 -101 48 -17 103 27 89 71 -16 51 -69
66 -105 30z"/>
<path d="M3847 4522 c-34 -38 -15 -95 35 -107 54 -13 92 70 50 108 -24 22 -65
21 -85 -1z"/>
<path d="M3862 3864 c-44 -30 -21 -114 31 -114 62 0 88 66 44 108 -28 26 -45
27 -75 6z"/>
<path d="M3877 3182 c-38 -42 -11 -105 43 -105 38 0 60 23 60 64 0 51 -70 78
-103 41z"/>
<path d="M3870 3518 c-25 -28 -26 -62 0 -88 39 -39 110 -11 110 44 0 27 -42
66 -71 66 -10 0 -27 -10 -39 -22z"/>
<path d="M3875 4725 c-28 -27 -30 -37 -14 -68 16 -29 28 -37 60 -37 54 0 79
70 39 110 -27 27 -56 25 -85 -5z"/>
<path d="M3980 3703 c-43 -15 -54 -82 -18 -107 48 -34 98 -7 98 52 0 44 -38
70 -80 55z"/>
<path d="M3947 4022 c-36 -40 -8 -102 47 -102 57 0 83 51 50 98 -19 28 -74 30
-97 4z"/>
<path d="M3965 4368 c-27 -15 -35 -28 -35 -59 0 -44 59 -76 96 -51 42 27 35
95 -11 112 -31 12 -25 12 -50 -2z"/>
<path d="M3975 3350 c-24 -27 -22 -70 5 -92 44 -36 100 -10 100 47 0 57 -67
87 -105 45z"/>
<path d="M3976 3008 c-35 -50 -5 -102 55 -96 47 4 71 46 49 86 -21 37 -81 44
-104 10z"/>
<path d="M4052 4194 c-39 -27 -24 -96 23 -108 46 -12 93 33 80 74 -15 49 -61
64 -103 34z"/>
<path d="M4054 3854 c-20 -19 -24 -31 -19 -52 12 -52 68 -69 105 -32 26 26 25
51 -1 84 -26 33 -53 33 -85 0z"/>
<path d="M4070 3520 c-11 -11 -20 -31 -20 -45 0 -14 9 -34 20 -45 11 -11 31
-20 45 -20 30 0 65 32 65 60 0 27 -43 70 -70 70 -11 0 -29 -9 -40 -20z"/>
<path d="M4078 3183 c-22 -26 -26 -45 -17 -71 16 -43 85 -48 111 -8 37 55 -51
129 -94 79z"/>
</g>
</svg>
