<?xml version="1.0" standalone="no"?>
<svg version="1.0" xmlns="http://www.w3.org/2000/svg"
 width="242.10pt" height="277.00pt" viewBox="-9.90 294.00 242.10 277.00"
 preserveAspectRatio="xMidYMid meet">

<g transform="translate(0.000000,559.000000) scale(0.100000,-0.100000)"
fill="#000000" stroke="none">
<path d="M468 1959 c-27 -15 -25 -85 2 -99 34 -18 73 -8 90 23 13 24 13 30 0
55 -17 30 -61 40 -92 21z"/>
<path d="M661 1951 c-12 -12 -21 -30 -21 -41 0 -59 90 -80 120 -27 13 24 13
30 0 55 -20 36 -70 42 -99 13z"/>
<path d="M785 1828 c-41 -23 -47 -66 -15 -98 37 -37 87 -19 104 37 5 17 1 29
-18 48 -28 28 -41 30 -71 13z"/>
<path d="M868 1959 c-23 -13 -24 -72 -2 -94 25 -25 75 -16 94 18 13 24 13 30
0 55 -17 30 -61 40 -92 21z"/>
<path d="M896 1687 c-27 -19 -24 -76 4 -99 27 -22 67 -17 88 9 43 57 -34 132
-92 90z"/>
<path d="M974 1814 c-20 -19 -24 -31 -19 -51 13 -52 69 -69 105 -33 27 27 25
56 -5 85 -31 32 -50 31 -81 -1z"/>
<path d="M1017 1542 c-41 -45 -10 -105 52 -100 28 2 39 9 50 32 12 26 12 33 0
55 -19 34 -77 41 -102 13z"/>
<path d="M1067 1952 c-36 -40 -9 -102 45 -102 51 0 78 69 40 103 -24 22 -65
21 -85 -1z"/>
<path d="M1843 2508 c-11 -13 -57 -78 -103 -145 l-84 -123 -793 0 c-529 0
-801 -3 -814 -10 -28 -16 -23 -54 14 -97 52 -60 422 -468 653 -719 117 -128
223 -251 236 -275 23 -43 23 -50 26 -429 2 -253 0 -397 -7 -421 -12 -40 -21
-45 -176 -99 -227 -80 -233 -83 -251 -115 -9 -17 -15 -40 -13 -50 4 -20 17
-20 582 -23 l577 -2 0 34 c0 58 -22 72 -220 142 -117 41 -192 73 -203 86 -17
20 -18 49 -15 432 3 478 -6 436 125 577 209 226 784 857 804 883 21 26 21 31
8 55 l-15 26 -197 5 -198 5 76 110 c41 60 75 117 75 126 0 23 -27 49 -49 49
-10 0 -27 -10 -38 -22z m-263 -373 c0 -3 -22 -39 -50 -80 l-49 -73 -41 5 c-55
8 -124 -20 -181 -74 -84 -78 -115 -201 -75 -290 l18 -41 -41 -68 c-40 -67 -53
-125 -31 -139 16 -10 75 39 119 98 37 51 40 53 79 49 64 -6 132 22 185 76 85
87 111 191 70 284 l-21 46 71 106 72 105 163 1 c89 0 162 -3 162 -6 0 -3 -73
-85 -162 -182 -90 -98 -248 -270 -352 -385 -103 -114 -192 -207 -196 -207 -4
0 -10 13 -13 29 -7 36 -37 47 -78 31 -56 -24 -46 -111 14 -118 l28 -3 -32 -37
c-18 -20 -44 -61 -58 -92 l-26 -55 -3 -418 c-4 -532 -12 -508 193 -578 l100
-34 -115 -2 c-283 -6 -550 -8 -550 -3 0 3 45 20 100 39 55 18 114 44 130 58
61 51 60 42 60 505 0 420 -1 423 -24 480 -13 31 -37 74 -55 96 -31 39 -40 59
-22 48 16 -10 59 12 66 34 25 80 -70 122 -114 50 l-17 -29 -39 39 -39 40 29 0
c51 0 78 44 59 95 -20 51 -114 30 -114 -25 0 -17 -2 -30 -5 -30 -6 0 -79 79
-83 91 -2 5 12 9 32 9 25 0 38 6 46 19 26 50 -1 101 -55 101 -39 0 -58 -20
-58 -61 l0 -30 -44 43 c-49 48 -52 58 -20 58 61 0 78 92 23 119 -41 19 -79 -1
-86 -48 l-5 -32 -86 93 c-47 51 -127 139 -178 196 l-93 102 696 0 c383 0 696
-2 696 -5z m-105 -270 c19 -19 25 -35 25 -70 0 -52 -10 -77 -49 -118 -53 -58
-119 -73 -162 -38 -36 29 -32 107 7 163 59 85 132 110 179 63z"/>
<path d="M1075 1285 c-29 -28 -31 -51 -9 -83 22 -31 67 -29 93 4 12 15 21 33
21 41 0 19 -45 63 -65 63 -9 0 -27 -11 -40 -25z"/>
<path d="M1676 1957 c-23 -17 -26 -68 -6 -92 22 -26 81 -16 100 18 13 24 13
30 0 55 -18 31 -64 41 -94 19z"/>
</g>
</svg>
