<?xml version="1.0" standalone="no"?>
<!DOCTYPE svg PUBLIC "-//W3C//DTD SVG 20010904//EN"
 "http://www.w3.org/TR/2001/REC-SVG-20010904/DTD/svg10.dtd">
<svg version="1.0" xmlns="http://www.w3.org/2000/svg"
 width="794.000000pt" height="1123.000000pt" viewBox="0 0 794.000000 1123.000000"
 preserveAspectRatio="xMidYMid meet">

<g transform="translate(0.000000,1123.000000) scale(0.100000,-0.100000)"
fill="#000000" stroke="none">
<path d="M3490 10694 c-30 -2 -136 -8 -235 -14 -667 -41 -1333 -139 -1670
-247 -219 -70 -396 -162 -469 -243 -30 -34 -36 -47 -36 -85 0 -45 29 -327 115
-1122 25 -227 45 -460 45 -518 0 -73 5 -115 14 -134 9 -16 27 -141 45 -302 17
-151 193 -1739 391 -3529 198 -1790 365 -3282 371 -3314 6 -33 19 -77 30 -98
20 -40 91 -101 168 -145 25 -15 76 -47 114 -71 37 -25 95 -53 130 -62 34 -10
116 -34 183 -53 429 -125 1031 -184 1615 -158 738 33 1247 156 1574 379 118
81 151 150 165 347 7 102 791 7191 916 8288 31 268 53 500 49 515 -11 48 -123
144 -227 195 -356 176 -982 290 -1963 358 -143 10 -1210 20 -1325 13z m1310
-234 c492 -26 1077 -101 1392 -180 136 -34 406 -121 486 -156 31 -14 52 -29
50 -36 -6 -17 -189 -92 -313 -128 -402 -117 -1044 -208 -1685 -240 -284 -14
-1095 -15 -1330 -1 -734 42 -1155 95 -1560 196 -209 52 -500 158 -500 181 0
17 308 126 480 169 378 96 1071 184 1560 198 254 8 1253 5 1420 -3z m-3320
-675 c704 -237 1986 -348 3260 -284 807 40 1333 121 1875 288 97 30 127 36
131 26 9 -22 -73 -755 -86 -769 -4 -4 -36 11 -70 34 -79 54 -188 105 -270 127
-78 21 -276 23 -363 4 -281 -61 -512 -294 -584 -589 -23 -96 -21 -265 5 -363
65 -244 256 -457 480 -534 62 -22 102 -28 202 -32 137 -6 241 9 379 52 41 13
77 22 80 20 9 -10 -245 -2315 -256 -2326 -5 -4 -75 -9 -158 -11 -141 -5 -155
-7 -240 -39 -280 -107 -478 -360 -503 -646 -5 -54 -6 -131 -1 -171 38 -339
295 -613 639 -681 l85 -17 -3 -59 c-6 -111 -170 -1635 -229 -2125 -11 -97 -49
-119 -383 -230 -364 -121 -723 -183 -1218 -212 -610 -34 -1329 77 -1852 287
-164 66 -155 57 -169 167 -55 427 -222 1902 -237 2088 l-6 85 89 18 c182 37
317 110 435 235 94 100 159 217 193 348 20 78 20 264 -1 357 -46 205 -183 390
-368 496 -125 71 -196 91 -369 102 -83 5 -152 11 -155 13 -2 2 -57 485 -122
1073 -141 1281 -138 1247 -134 1252 2 2 37 -11 80 -29 105 -43 190 -60 315
-60 340 0 623 206 735 535 35 105 45 292 20 400 -56 244 -199 427 -411 530
-125 60 -205 78 -345 78 -172 -1 -313 -44 -466 -144 -33 -21 -63 -39 -66 -39
-7 0 -14 50 -53 428 -39 369 -38 362 -27 362 4 0 68 -20 142 -45z"/>
<path d="M3915 9024 c-83 -12 -266 -81 -332 -126 -53 -36 -164 -164 -213 -248
-136 -228 -137 -551 -3 -780 51 -87 200 -236 288 -288 129 -75 272 -108 424
-98 126 8 197 27 306 81 270 133 425 385 425 690 0 345 -203 627 -532 742 -61
21 -94 26 -203 28 -71 2 -143 1 -160 -1z"/>
<path d="M2878 7130 c-284 -52 -508 -233 -607 -489 -70 -182 -69 -354 3 -575
42 -129 68 -170 163 -251 198 -169 335 -224 559 -225 340 0 623 202 735 527
41 121 43 355 3 478 -82 250 -284 444 -534 515 -84 23 -248 34 -322 20z"/>
<path d="M4972 7130 c-86 -12 -151 -34 -253 -86 -70 -36 -103 -62 -182 -143
-86 -87 -102 -109 -146 -202 -65 -138 -76 -188 -76 -344 1 -107 5 -143 24
-205 85 -276 288 -473 555 -540 95 -24 259 -27 358 -5 260 55 481 252 570 510
27 78 29 93 29 242 0 176 -9 217 -68 339 -101 208 -283 359 -497 414 -89 22
-230 31 -314 20z"/>
<path d="M3890 5226 c-300 -65 -527 -280 -600 -570 -42 -168 -22 -383 50 -527
111 -220 285 -361 520 -420 119 -30 299 -24 415 15 326 110 535 396 535 733 0
134 -22 238 -71 340 -96 200 -278 353 -491 413 -95 27 -269 35 -358 16z"/>
<path d="M2825 3325 c-238 -52 -452 -230 -546 -454 -65 -155 -76 -372 -29
-526 87 -280 317 -485 609 -542 72 -14 100 -15 200 -5 216 22 345 86 502 249
95 99 146 190 180 321 28 107 28 287 0 396 -75 286 -289 493 -581 561 -79 18
-252 18 -335 0z"/>
<path d="M4895 3321 c-141 -39 -263 -109 -360 -207 -70 -72 -106 -123 -150
-217 -56 -117 -70 -185 -70 -332 0 -105 5 -145 23 -209 75 -260 268 -452 542
-538 63 -19 95 -23 200 -22 155 1 234 19 360 81 79 39 110 62 180 132 199 200
273 430 225 704 -29 165 -86 269 -220 402 -103 102 -184 154 -300 191 -112 36
-325 44 -430 15z"/>
</g>
</svg>
