<?xml version="1.0" standalone="no"?>
<!DOCTYPE svg PUBLIC "-//W3C//DTD SVG 20010904//EN"
 "http://www.w3.org/TR/2001/REC-SVG-20010904/DTD/svg10.dtd">
<svg version="1.0" xmlns="http://www.w3.org/2000/svg"
 width="952.000000pt" height="1123.000000pt" viewBox="0 0 952.000000 1123.000000"
 preserveAspectRatio="xMidYMid meet">

<g transform="translate(0.000000,1123.000000) scale(0.100000,-0.100000)"
fill="#000000" stroke="none">
<path d="M3945 10730 c-394 -13 -590 -28 -962 -70 -554 -62 -869 -114 -1126
-185 -312 -85 -563 -211 -613 -306 -13 -26 -13 -46 1 -182 9 -83 22 -197 30
-252 8 -55 26 -190 40 -300 23 -187 40 -320 116 -900 16 -126 43 -331 59 -455
16 -124 43 -328 60 -455 17 -126 45 -331 61 -455 32 -240 70 -530 119 -897 17
-126 44 -329 60 -453 16 -124 43 -324 59 -445 16 -121 44 -326 61 -455 17
-129 44 -332 60 -450 16 -118 43 -321 60 -450 17 -129 44 -332 60 -450 16
-118 42 -318 59 -445 17 -126 47 -349 66 -495 20 -146 46 -350 60 -455 13
-104 28 -219 34 -255 6 -36 15 -105 21 -155 6 -49 27 -207 46 -350 44 -321 57
-358 155 -428 187 -132 513 -254 860 -322 172 -33 514 -82 673 -95 397 -32
1160 -32 1547 0 419 35 836 114 1119 212 156 54 384 166 442 217 82 72 101
123 127 336 11 88 56 423 86 640 9 61 29 211 45 335 28 219 57 438 119 900 16
124 44 331 61 460 17 129 45 334 61 455 16 121 43 324 60 450 49 371 86 654
118 895 17 124 44 326 60 450 32 244 75 567 122 915 16 121 43 321 59 445 29
218 57 429 121 907 34 259 75 564 118 893 57 428 80 596 105 773 42 291 37
318 -69 397 -128 94 -295 163 -570 233 -425 109 -1158 204 -1825 238 -276 13
-1698 20 -2025 9z m1640 -320 c749 -19 1542 -105 1982 -216 207 -52 363 -97
363 -104 0 -4 -46 -21 -102 -38 -447 -137 -1309 -247 -2208 -282 -335 -13
-1223 -13 -1520 0 -855 37 -1446 99 -1911 201 -136 29 -348 87 -404 109 l-30
12 32 14 c55 23 410 112 553 138 333 61 657 98 1270 147 309 24 1351 34 1975
19z m-3705 -706 c472 -122 1144 -205 2080 -256 293 -16 1384 -16 1730 0 780
36 1337 95 1825 193 181 36 447 99 489 115 22 9 21 -19 -9 -256 -30 -233 -50
-358 -59 -367 -3 -4 -34 7 -69 24 -34 17 -86 41 -116 53 -256 100 -617 88
-877 -30 -253 -114 -448 -344 -500 -589 -82 -389 193 -783 641 -918 84 -25
103 -27 290 -27 172 -1 216 2 318 23 65 13 121 21 124 17 3 -3 0 -45 -6 -93
-11 -83 -24 -179 -100 -763 -17 -129 -44 -334 -60 -455 -16 -121 -43 -323 -60
-450 -42 -318 -59 -427 -68 -435 -4 -5 -78 -10 -163 -13 -222 -7 -376 -53
-542 -163 -296 -197 -432 -483 -374 -787 29 -151 102 -281 223 -400 137 -134
277 -209 491 -263 75 -19 138 -37 141 -39 6 -6 -12 -170 -49 -455 -16 -124
-41 -319 -55 -435 -30 -241 -33 -255 -43 -255 -4 0 -13 30 -20 67 -24 126
-120 275 -249 385 -169 144 -337 222 -539 249 -131 17 -369 7 -464 -21 -347
-100 -575 -298 -671 -585 -21 -61 -24 -88 -23 -215 1 -130 3 -152 27 -219 40
-111 89 -191 171 -279 260 -276 700 -389 1096 -281 94 26 259 104 330 158 111
84 211 194 258 288 28 54 42 62 36 21 -2 -18 -22 -159 -44 -313 -35 -249 -41
-282 -61 -297 -11 -10 -78 -36 -148 -59 -968 -311 -2185 -370 -3261 -158 -238
47 -617 151 -741 203 l-35 15 -28 188 c-43 288 -57 404 -53 422 2 10 13 -2 29
-34 128 -244 480 -450 803 -472 110 -7 295 10 401 37 96 25 258 103 338 164
212 161 312 327 340 561 14 119 -32 316 -101 434 -48 81 -158 199 -239 257
-311 222 -773 259 -1132 89 -240 -114 -418 -309 -471 -516 -31 -123 -31 -122
-81 251 -69 521 -102 791 -96 805 3 8 16 15 29 15 41 0 217 48 302 82 111 45
239 133 327 227 167 177 231 360 208 587 -29 280 -235 532 -537 658 -144 61
-213 76 -387 86 -87 4 -162 12 -167 17 -8 8 -29 157 -104 738 -14 105 -27 201
-30 215 -3 14 -18 131 -35 260 -72 564 -89 684 -98 689 -11 7 -48 279 -39 287
3 3 52 -7 109 -21 137 -36 376 -46 510 -21 179 34 323 95 456 196 558 420 369
1192 -341 1395 -254 72 -550 50 -802 -61 -121 -54 -111 -56 -124 23 -6 37 -22
165 -36 283 -14 118 -28 230 -31 249 -6 32 -6 34 17 27 13 -4 103 -27 199 -52z"/>
<path d="M4647 9070 c-215 -34 -444 -153 -583 -304 -84 -90 -138 -182 -176
-298 -56 -169 -39 -365 45 -536 100 -203 359 -398 622 -469 91 -24 116 -27
275 -26 198 0 275 12 418 66 354 133 582 427 582 752 0 259 -128 482 -376 653
-58 40 -189 100 -289 132 -94 30 -110 32 -280 35 -99 2 -206 0 -238 -5z"/>
<path d="M3408 7174 c-48 -7 -129 -27 -180 -44 -294 -99 -511 -302 -597 -560
-35 -106 -36 -288 -3 -405 63 -218 224 -396 467 -515 186 -92 248 -105 495
-105 192 0 211 2 300 27 52 14 126 41 165 58 224 101 418 300 485 499 63 187
40 420 -57 586 -200 342 -635 528 -1075 459z"/>
<path d="M5943 7179 c-158 -17 -363 -97 -487 -190 -160 -122 -253 -244 -314
-411 -24 -66 -27 -86 -27 -218 0 -132 3 -152 27 -218 101 -279 331 -479 655
-570 92 -25 110 -27 298 -26 183 0 208 3 297 26 293 79 518 257 633 500 42 87
55 157 55 288 0 131 -13 201 -55 288 -142 299 -437 494 -806 532 -114 11 -158
11 -276 -1z"/>
<path d="M4675 5280 c-330 -52 -617 -243 -743 -495 -97 -196 -100 -441 -6
-633 100 -203 306 -374 551 -455 136 -45 209 -57 355 -57 207 0 358 34 524
119 100 50 162 95 243 174 165 162 241 352 228 572 -12 201 -73 331 -227 485
-141 141 -306 230 -510 275 -89 19 -330 28 -415 15z"/>
</g>
</svg>
