<?xml version="1.0" standalone="no"?>
<!DOCTYPE svg PUBLIC "-//W3C//DTD SVG 20010904//EN"
 "http://www.w3.org/TR/2001/REC-SVG-20010904/DTD/svg10.dtd">
<svg version="1.0" xmlns="http://www.w3.org/2000/svg"
 width="100.000000pt" height="100.000000pt" viewBox="0 0 100.000000 100.000000"
 preserveAspectRatio="xMidYMid meet">

<g transform="translate(0.000000,100.000000) scale(0.100000,-0.100000)"
fill="#000000" stroke="none">
<path d="M420 980 c-22 -22 -27 -79 -9 -97 7 -7 8 -40 3 -98 -6 -81 -10 -91
-40 -125 -19 -21 -43 -59 -55 -85 -20 -45 -20 -53 -9 -164 9 -86 9 -146 1
-231 -14 -146 -14 -137 9 -160 18 -18 33 -20 180 -20 147 0 162 2 180 20 23
23 23 14 9 160 -8 83 -7 146 1 232 10 111 10 120 -9 164 -12 26 -36 63 -55 84
-30 34 -34 44 -40 125 -5 58 -4 91 3 98 18 18 13 75 -9 97 -16 16 -33 20 -80
20 -47 0 -64 -4 -80 -20z m140 -40 c0 -18 -7 -20 -60 -20 -53 0 -60 2 -60 20
0 18 7 20 60 20 53 0 60 -2 60 -20z m-16 -77 c2 -10 8 -54 11 -98 7 -73 10
-83 46 -126 47 -57 59 -86 59 -150 0 -49 0 -49 -33 -49 -23 0 -41 8 -57 25
-33 36 -107 36 -140 0 -16 -17 -34 -25 -57 -25 -33 0 -33 0 -33 49 0 64 12 93
59 150 36 43 39 53 46 126 10 114 10 115 55 115 28 0 40 -5 44 -17z m16 -435
c16 -26 20 -51 20 -118 0 -112 -20 -150 -80 -150 -60 0 -80 38 -80 150 0 112
20 150 80 150 35 0 43 -4 60 -32z m-170 -118 c0 -83 -1 -90 -20 -90 -19 0 -20
7 -20 90 0 83 1 90 20 90 19 0 20 -7 20 -90z m260 0 c0 -83 -1 -90 -20 -90
-19 0 -20 7 -20 90 0 83 1 90 20 90 19 0 20 -7 20 -90z m-220 -155 c33 -36
107 -36 140 0 16 17 34 25 57 25 l33 0 0 -70 0 -70 -160 0 -160 0 0 70 0 70
33 0 c23 0 41 -8 57 -25z"/>
</g>
</svg>
