<?xml version="1.0" standalone="no"?>
<svg version="1.0" xmlns="http://www.w3.org/2000/svg"
 width="132.10pt" height="309.00pt" viewBox="847.80 -12.00 132.10 309.00"
 preserveAspectRatio="xMidYMid meet">

<g transform="translate(0.000000,559.000000) scale(0.100000,-0.100000)"
fill="#000000" stroke="none">
<path d="M8812 4564 c-34 -23 -27 -83 11 -104 24 -13 30 -13 55 0 37 21 44 81
10 104 -12 9 -29 16 -38 16 -9 0 -26 -7 -38 -16z"/>
<path d="M8914 4732 c-49 -32 -32 -105 25 -110 41 -4 71 21 71 59 0 15 -7 35
-16 43 -16 17 -61 21 -80 8z"/>
<path d="M8912 4394 c-18 -12 -22 -24 -20 -52 7 -79 109 -81 116 -3 6 60 -46
90 -96 55z"/>
<path d="M8917 5069 c-39 -23 -41 -86 -3 -111 20 -14 63 -8 79 10 49 54 -14
137 -76 101z"/>
<path d="M9013 4232 c-22 -14 -32 -57 -19 -83 15 -32 81 -40 102 -12 19 26 17
67 -4 86 -19 18 -59 22 -79 9z"/>
<path d="M9012 4894 c-26 -18 -30 -75 -7 -94 22 -18 77 -15 92 6 30 41 2 104
-47 104 -9 0 -26 -7 -38 -16z"/>
<path d="M9013 4563 c-35 -30 -38 -59 -9 -88 30 -30 59 -32 86 -5 54 54 -20
143 -77 93z"/>
<path d="M9107 4392 c-55 -60 26 -149 83 -92 27 27 26 75 -2 94 -30 21 -61 20
-81 -2z"/>
<path d="M8775 5568 c-2 -13 -9 -66 -15 -118 -92 -884 -99 -1033 -55 -1183 42
-144 89 -230 205 -377 112 -141 104 -107 108 -486 3 -219 0 -344 -7 -371 -13
-48 -21 -53 -201 -114 -163 -55 -212 -99 -180 -160 10 -18 27 -19 513 -19 378
0 506 3 515 12 21 21 13 59 -20 92 -23 22 -62 42 -128 65 -151 51 -180 63
-206 83 l-24 19 0 365 c0 416 -7 381 94 504 149 180 206 303 231 490 11 78 10
130 -1 290 -7 107 -16 218 -19 245 -3 28 -14 145 -25 260 -29 299 -41 398 -53
413 -7 9 -93 12 -368 12 l-359 0 -5 -22z m655 -71 c0 -7 5 -53 10 -102 5 -50
16 -169 25 -265 8 -96 17 -185 20 -197 5 -21 2 -23 -30 -23 -40 0 -75 -28 -75
-60 0 -12 11 -32 25 -46 21 -21 31 -24 61 -18 l37 7 -7 -37 c-3 -20 -9 -51
-12 -69 -4 -24 -1 -39 10 -50 9 -9 16 -32 16 -56 l0 -41 -20 20 c-27 27 -56
25 -85 -5 -31 -30 -32 -58 -3 -85 28 -25 62 -26 88 0 27 27 30 26 30 -14 0
-19 -9 -45 -21 -60 -17 -22 -20 -35 -15 -67 10 -63 0 -88 -37 -87 -20 1 -36
-6 -49 -22 -23 -29 -23 -51 3 -83 16 -22 18 -30 9 -48 -10 -17 -18 -20 -46
-14 -28 5 -38 1 -59 -19 -29 -29 -30 -41 -11 -77 13 -25 11 -30 -24 -74 -21
-27 -49 -69 -62 -94 -23 -45 -23 -51 -26 -413 -2 -239 1 -381 8 -407 15 -56
56 -92 136 -120 38 -13 72 -27 76 -30 4 -3 -110 -6 -253 -6 -142 0 -259 3
-259 6 0 3 24 13 54 22 67 22 114 53 143 96 23 34 23 35 23 415 0 429 2 411
-81 521 -37 49 -41 60 -31 76 24 37 9 90 -28 101 -8 3 -27 2 -42 -3 -22 -6
-30 -3 -43 18 -16 24 -16 26 4 47 12 12 21 34 21 48 0 34 -44 70 -75 62 -19
-5 -24 -1 -30 25 -3 16 -2 39 4 50 16 30 14 43 -15 76 -25 29 -26 33 -20 123
4 72 10 99 26 119 24 30 25 52 5 79 -13 17 -22 84 -11 84 3 0 17 -5 31 -10 65
-25 113 52 64 101 -16 16 -28 20 -55 14 -32 -6 -34 -4 -29 17 3 13 12 97 20
188 19 219 35 383 39 395 5 16 566 8 566 -8z"/>
<path d="M9120 4067 c-32 -16 -40 -70 -14 -98 38 -42 104 -12 104 48 0 47 -45
72 -90 50z"/>
<path d="M9122 5070 c-12 -5 -27 -22 -33 -37 -8 -22 -6 -32 9 -52 37 -50 112
-31 112 28 0 32 -8 44 -37 60 -25 13 -21 13 -51 1z"/>
<path d="M9102 4728 c-20 -20 -15 -86 7 -98 50 -26 101 -1 101 50 0 16 -7 36
-16 44 -18 19 -75 21 -92 4z"/>
<path d="M9205 4894 c-10 -11 -15 -29 -13 -53 7 -82 117 -72 118 11 0 49 -70
77 -105 42z"/>
<path d="M9212 4564 c-34 -23 -27 -83 11 -104 24 -13 30 -13 55 0 37 21 44 81
10 104 -12 9 -29 16 -38 16 -9 0 -26 -7 -38 -16z"/>
<path d="M9206 4224 c-19 -18 -21 -75 -4 -92 18 -18 73 -14 91 6 37 40 9 102
-46 102 -14 0 -33 -7 -41 -16z"/>
<path d="M9296 4718 c-32 -45 -6 -98 48 -98 39 0 66 26 66 62 0 55 -83 81
-114 36z"/>
<path d="M9306 4389 c-14 -11 -26 -29 -26 -40 0 -26 43 -69 70 -69 28 0 60 35
60 65 0 29 -32 65 -59 65 -10 0 -30 -9 -45 -21z"/>
<path d="M9305 5055 c-14 -13 -25 -32 -25 -43 0 -26 37 -62 63 -62 64 0 90 70
41 109 -34 27 -50 26 -79 -4z"/>
</g>
</svg>
