<?xml version="1.0" standalone="no"?>
<svg version="1.0" xmlns="http://www.w3.org/2000/svg"
 width="170.10pt" height="199.00pt" viewBox="296.90 372.00 170.10 199.00"
 preserveAspectRatio="xMidYMid meet">

<g transform="translate(0.000000,559.000000) scale(0.100000,-0.100000)"
fill="#000000" stroke="none">
<path d="M3285 1380 c-22 -24 -23 -67 -2 -88 22 -21 77 -20 93 3 46 62 -39
142 -91 85z"/>
<path d="M3380 880 c-39 -39 -12 -100 44 -100 40 0 59 20 59 62 0 54 -63 78
-103 38z"/>
<path d="M3382 1217 c-23 -27 -24 -65 -3 -86 43 -43 120 -9 106 47 -10 40 -24
52 -60 52 -18 0 -37 -6 -43 -13z"/>
<path d="M3480 1380 c-24 -24 -25 -48 -4 -78 32 -46 114 -17 114 40 0 26 -36
58 -65 58 -14 0 -34 -9 -45 -20z"/>
<path d="M3481 1044 c-12 -15 -21 -33 -21 -41 0 -19 45 -63 65 -63 20 0 65 44
65 63 0 25 -41 67 -65 67 -14 0 -32 -11 -44 -26z"/>
<path d="M3502 730 c-12 -5 -27 -21 -34 -35 -10 -22 -8 -30 9 -53 28 -38 65
-40 92 -6 27 34 27 49 -4 79 -26 27 -29 28 -63 15z"/>
<path d="M3572 1210 c-40 -64 32 -131 93 -86 21 15 25 67 5 90 -19 24 -82 21
-98 -4z"/>
<path d="M3580 880 c-43 -43 -11 -104 51 -98 77 7 69 117 -8 118 -13 0 -32 -9
-43 -20z"/>
<path d="M3580 550 c-43 -43 -11 -104 51 -98 77 7 69 117 -8 118 -13 0 -32 -9
-43 -20z"/>
<path d="M3692 1058 c-45 -22 -41 -88 7 -108 33 -13 64 -2 81 30 15 28 13 38
-15 65 -26 27 -38 29 -73 13z"/>
<path d="M3686 719 c-31 -25 -34 -61 -6 -89 33 -33 76 -26 99 17 16 31 14 41
-14 68 -29 30 -45 31 -79 4z"/>
<path d="M3680 1378 c-27 -29 -22 -66 11 -90 20 -15 30 -17 51 -9 49 18 59 69
22 106 -22 22 -60 18 -84 -7z"/>
<path d="M3780 550 c-41 -41 -16 -100 44 -100 40 0 56 15 56 55 0 58 -60 85
-100 45z"/>
<path d="M3777 882 c-36 -39 -11 -102 39 -102 43 0 64 17 64 54 0 58 -66 89
-103 48z"/>
<path d="M3776 1211 c-40 -44 6 -113 67 -97 31 7 45 45 31 85 -12 35 -71 42
-98 12z"/>
<path d="M3105 1727 c-16 -25 -15 -32 20 -307 9 -69 27 -219 40 -335 22 -189
36 -301 65 -535 17 -138 41 -334 49 -407 5 -40 17 -87 28 -105 l19 -33 484 -3
484 -2 23 22 c33 31 39 61 73 358 17 146 42 355 55 465 14 110 41 337 60 505
20 168 38 317 41 332 4 19 -1 33 -15 47 -21 21 -27 21 -716 21 l-695 0 -15
-23z m1335 -101 c0 -14 -6 -76 -14 -138 -8 -62 -18 -142 -21 -178 -4 -36 -14
-72 -21 -81 -26 -29 -34 -75 -17 -98 9 -14 12 -32 8 -51 -6 -25 -9 -28 -25
-20 -28 15 -48 12 -70 -10 -43 -43 -7 -118 50 -106 27 5 28 4 24 -27 -16 -128
-25 -172 -33 -175 -6 -2 -22 -13 -37 -24 -22 -18 -25 -26 -20 -58 7 -43 -22
-90 -55 -90 -12 0 -28 -14 -41 -36 -23 -40 -71 -73 -150 -105 -76 -30 -271
-38 -354 -14 -94 27 -149 60 -181 107 -20 30 -37 44 -55 46 -38 5 -61 44 -46
77 15 33 -2 71 -39 87 -37 17 -40 22 -47 87 -4 31 -9 73 -12 95 -6 36 -5 38
16 31 31 -10 79 13 86 41 8 32 0 49 -31 70 -21 14 -30 15 -52 5 -21 -10 -28
-9 -34 1 -14 21 -10 54 6 68 22 18 18 54 -8 87 -16 19 -26 47 -31 88 -4 33
-14 116 -22 185 -8 69 -17 133 -20 143 -5 16 29 17 620 17 l626 0 0 -24z
m-156 -1311 c-13 -104 -26 -200 -29 -212 l-5 -23 -424 0 c-353 0 -426 2 -435
14 -7 8 -16 54 -22 103 -5 48 -15 136 -22 196 -7 59 -11 107 -9 107 2 0 28
-21 56 -47 53 -49 142 -98 231 -129 65 -22 246 -30 328 -15 86 17 231 89 297
149 30 27 56 49 57 48 1 0 -10 -86 -23 -191z"/>
<path d="M3886 1385 c-48 -49 -15 -114 54 -106 21 3 50 39 50 62 0 46 -71 76
-104 44z"/>
<path d="M3888 1057 c-28 -22 -32 -60 -8 -90 12 -15 30 -27 41 -27 24 0 69 43
69 65 0 22 -45 65 -67 65 -10 0 -26 -6 -35 -13z"/>
<path d="M3884 715 c-20 -20 -24 -32 -19 -53 16 -69 99 -70 120 -1 7 20 -17
69 -34 69 -5 0 -16 3 -25 6 -9 3 -26 -5 -42 -21z"/>
<path d="M3980 880 c-28 -28 -25 -64 7 -89 43 -34 96 -7 96 49 0 55 -64 79
-103 40z"/>
<path d="M3980 550 c-24 -24 -26 -63 -4 -84 20 -20 78 -21 94 -1 20 24 15 67
-10 87 -29 23 -55 23 -80 -2z"/>
<path d="M3974 1204 c-35 -53 21 -113 80 -86 58 26 36 112 -29 112 -26 0 -39
-6 -51 -26z"/>
<path d="M4082 1050 c-55 -52 11 -137 73 -96 34 22 37 66 8 99 -21 23 -54 22
-81 -3z"/>
<path d="M4080 1380 c-40 -40 -12 -102 46 -102 39 0 60 29 55 79 -4 41 -68 56
-101 23z"/>
<path d="M4086 719 c-31 -25 -34 -61 -6 -89 28 -28 64 -25 89 7 24 30 20 58
-11 86 -26 22 -40 22 -72 -4z"/>
<path d="M4182 884 c-47 -32 -17 -104 44 -104 38 0 54 16 54 55 0 56 -51 82
-98 49z"/>
<path d="M4176 1214 c-22 -21 -20 -67 2 -87 23 -21 66 -22 86 -1 19 18 21 75
4 92 -17 17 -74 15 -92 -4z"/>
<path d="M4280 1380 c-27 -27 -23 -67 11 -92 31 -24 73 -11 91 27 10 22 8 30
-9 53 -26 35 -65 40 -93 12z"/>
</g>
</svg>
