<?xml version="1.0" standalone="no"?>
<svg version="1.0" xmlns="http://www.w3.org/2000/svg"
 width="251.50pt" height="218.00pt" viewBox="538.50 353.00 251.50 218.00"
 preserveAspectRatio="xMidYMid meet">

<g transform="translate(0.000000,559.000000) scale(0.100000,-0.100000)"
fill="#000000" stroke="none">
<path d="M5670 880 c-41 -41 -13 -100 47 -100 37 0 56 21 56 62 0 54 -63 78
-103 38z"/>
<path d="M5665 1206 c-34 -51 9 -107 70 -92 36 9 51 46 34 82 -11 23 -22 30
-51 32 -30 3 -40 -1 -53 -22z"/>
<path d="M5670 550 c-43 -43 -11 -104 51 -98 77 7 69 117 -8 118 -13 0 -32 -9
-43 -20z"/>
<path d="M5670 220 c-11 -11 -20 -29 -20 -40 0 -27 43 -70 69 -70 20 0 61 43
61 65 0 7 -9 24 -21 39 -25 31 -61 34 -89 6z"/>
<path d="M5690 1563 c-42 -15 -53 -70 -20 -103 25 -25 62 -26 85 0 45 49 -3
125 -65 103z"/>
<path d="M5770 1380 c-46 -46 -9 -106 62 -101 24 1 51 45 43 70 -16 52 -69 67
-105 31z"/>
<path d="M5776 719 c-31 -25 -34 -61 -6 -89 28 -28 64 -25 89 6 27 34 26 50
-4 79 -29 30 -45 31 -79 4z"/>
<path d="M5776 1049 c-15 -12 -26 -30 -26 -44 0 -24 42 -65 67 -65 19 0 63 45
63 65 0 20 -44 65 -63 65 -8 0 -26 -9 -41 -21z"/>
<path d="M5776 389 c-15 -12 -26 -30 -26 -45 0 -31 33 -64 65 -64 30 0 65 32
65 60 0 24 -42 70 -63 70 -8 0 -26 -9 -41 -21z"/>
<path d="M5867 1212 c-48 -53 19 -126 84 -92 21 12 26 59 9 91 -14 25 -71 26
-93 1z"/>
<path d="M5870 550 c-41 -41 -16 -100 44 -100 41 0 56 15 56 56 0 60 -59 85
-100 44z"/>
<path d="M5870 880 c-39 -39 -16 -100 36 -100 43 0 64 17 64 54 0 59 -59 87
-100 46z"/>
<path d="M5871 216 c-29 -30 -24 -63 12 -90 26 -19 30 -19 55 -5 52 28 34 119
-23 119 -12 0 -32 -11 -44 -24z"/>
<path d="M5885 1558 c-26 -15 -35 -28 -35 -55 0 -30 34 -63 63 -63 54 0 79 84
35 114 -26 19 -36 19 -63 4z"/>
<path d="M5979 1057 c-60 -47 -10 -136 60 -108 49 21 50 85 1 111 -24 13 -41
12 -61 -3z"/>
<path d="M5977 1388 c-45 -35 -19 -110 38 -110 32 0 65 32 65 63 0 45 -66 75
-103 47z"/>
<path d="M5992 399 c-32 -12 -48 -52 -34 -84 22 -48 104 -42 114 9 10 52 -33
92 -80 75z"/>
<path d="M5975 716 c-30 -30 -32 -59 -5 -86 54 -54 143 20 93 77 -30 35 -59
38 -88 9z"/>
<path d="M6071 881 c-44 -44 -12 -105 50 -99 24 2 38 11 48 30 14 25 14 29 -5
55 -26 35 -66 41 -93 14z"/>
<path d="M6071 551 c-25 -25 -27 -49 -5 -79 24 -35 84 -28 103 12 12 25 11 31
-6 55 -26 33 -65 39 -92 12z"/>
<path d="M6077 1549 c-32 -25 -35 -61 -7 -89 28 -28 64 -25 89 6 26 32 26 46
4 72 -28 31 -56 35 -86 11z"/>
<path d="M6071 219 c-24 -26 -26 -38 -9 -74 15 -33 51 -42 82 -21 35 23 42 53
19 85 -26 34 -65 39 -92 10z"/>
<path d="M6065 1206 c-22 -33 -13 -73 20 -88 56 -25 109 26 83 80 -10 21 -21
28 -50 30 -30 3 -40 -1 -53 -22z"/>
<path d="M6171 1051 c-53 -53 12 -138 74 -97 34 23 41 53 18 85 -26 33 -65 39
-92 12z"/>
<path d="M6170 1380 c-43 -43 -11 -104 51 -98 77 7 69 117 -8 118 -13 0 -32
-9 -43 -20z"/>
<path d="M6176 719 c-31 -25 -34 -61 -6 -89 28 -28 64 -25 89 7 24 30 20 58
-11 86 -26 22 -40 22 -72 -4z"/>
<path d="M6193 399 c-49 -18 -54 -90 -8 -111 55 -25 109 26 83 79 -15 31 -45
43 -75 32z"/>
<path d="M6270 220 c-53 -53 14 -136 75 -96 33 22 35 78 3 100 -30 21 -54 20
-78 -4z"/>
<path d="M6270 550 c-41 -41 -16 -100 44 -100 40 0 56 15 56 55 0 58 -60 85
-100 45z"/>
<path d="M6266 1214 c-37 -37 -7 -104 47 -104 48 0 73 52 47 101 -13 24 -72
26 -94 3z"/>
<path d="M6267 882 c-22 -24 -21 -65 1 -85 22 -20 73 -22 90 -5 17 17 15 74
-4 92 -21 22 -67 20 -87 -2z"/>
<path d="M6285 1558 c-27 -15 -35 -28 -35 -60 0 -30 32 -58 66 -58 51 0 75 84
32 114 -26 19 -36 19 -63 4z"/>
<path d="M6371 1381 c-44 -44 -12 -105 50 -99 24 2 38 11 48 30 14 25 14 29
-5 55 -26 35 -66 41 -93 14z"/>
<path d="M6382 728 c-46 -23 -37 -101 13 -114 16 -4 34 0 50 10 33 22 35 78 3
100 -26 18 -34 19 -66 4z"/>
<path d="M6370 1050 c-11 -11 -20 -31 -20 -45 0 -29 32 -65 58 -65 34 0 62 29
62 65 0 57 -60 85 -100 45z"/>
<path d="M6370 390 c-30 -30 -24 -79 13 -100 24 -13 30 -13 55 0 50 29 38 101
-20 115 -19 5 -32 1 -48 -15z"/>
<path d="M6467 882 c-33 -36 -16 -94 30 -105 32 -7 73 27 73 62 0 54 -68 82
-103 43z"/>
<path d="M6462 1210 c-28 -46 -2 -100 50 -100 48 0 75 62 44 103 -19 24 -78
23 -94 -3z"/>
<path d="M6470 220 c-37 -37 -20 -93 32 -105 54 -13 92 70 50 108 -25 23 -58
21 -82 -3z"/>
<path d="M6473 555 c-26 -18 -31 -61 -10 -89 9 -13 23 -17 52 -14 33 2 41 8
49 31 22 60 -40 108 -91 72z"/>
<path d="M6490 1563 c-43 -15 -54 -82 -18 -107 30 -21 61 -20 81 2 44 49 -3
127 -63 105z"/>
<path d="M6577 389 c-66 -51 -1 -138 74 -99 13 7 19 21 19 43 0 63 -48 92 -93
56z"/>
<path d="M6570 1050 c-53 -53 14 -136 75 -96 33 22 35 78 3 100 -30 21 -54 20
-78 -4z"/>
<path d="M6585 728 c-41 -23 -47 -66 -15 -98 41 -41 100 -13 100 47 0 45 -46
73 -85 51z"/>
<path d="M6570 1380 c-43 -43 -11 -104 51 -98 77 7 69 117 -8 118 -13 0 -32
-9 -43 -20z"/>
<path d="M5522 1928 c-17 -17 -17 -1729 0 -1779 16 -49 45 -87 91 -120 l40
-29 661 0 662 0 39 26 c45 28 86 82 103 133 7 19 12 87 12 152 l0 119 73 0
c145 0 263 53 378 170 132 133 199 305 199 508 0 239 -99 444 -267 554 -105
69 -143 81 -268 85 l-110 3 -1 80 c-1 48 -6 85 -14 95 -11 13 -105 15 -799 15
-599 0 -790 -3 -799 -12z m1508 -303 c0 -218 -1 -225 -20 -225 -11 0 -29 -9
-40 -20 -38 -38 -16 -100 36 -100 24 0 24 0 24 -105 0 -98 -1 -105 -20 -105
-11 0 -29 -9 -40 -20 -38 -38 -18 -100 33 -103 l27 -2 0 -107 c0 -85 -3 -106
-13 -102 -23 9 -67 -35 -67 -66 0 -31 30 -60 62 -60 16 0 18 -11 18 -105 0
-101 -1 -105 -22 -105 -12 0 -30 -7 -40 -17 -37 -33 -11 -103 39 -103 20 0 23
-5 23 -41 0 -55 -25 -105 -69 -135 l-36 -24 -603 0 c-648 0 -630 -1 -679 52
-21 23 -43 85 -43 124 0 16 8 23 30 28 61 12 61 102 0 116 -24 6 -25 9 -28
107 l-3 100 31 6 c62 13 61 97 -1 120 l-30 12 3 99 c3 97 4 100 28 106 14 3
31 18 40 32 13 25 13 29 -6 55 -12 15 -31 29 -43 31 -21 3 -22 7 -19 105 3 97
4 102 26 105 12 2 30 14 38 28 24 35 11 72 -31 90 l-35 14 0 213 c0 118 3 217
7 220 3 4 325 7 715 7 l708 0 0 -225z m368 -6 c151 -72 256 -229 284 -424 44
-305 -151 -617 -416 -666 -32 -6 -76 -7 -97 -4 -39 7 -39 7 -39 53 l0 47 73 0
c92 1 163 32 234 103 107 107 169 303 145 458 -38 242 -194 390 -389 369 l-64
-7 3 49 c3 44 5 48 33 55 61 14 165 -1 233 -33z m-80 -178 c54 -28 107 -88
139 -156 25 -54 28 -71 28 -170 0 -125 -14 -177 -74 -266 -66 -97 -168 -147
-255 -125 l-26 6 0 356 0 355 23 9 c40 16 125 11 165 -9z"/>
<path d="M6667 1212 c-23 -25 -21 -58 3 -82 40 -40 100 -16 100 40 0 16 -7 36
-16 44 -21 22 -67 20 -87 -2z"/>
<path d="M6670 220 c-26 -26 -25 -64 2 -90 41 -38 98 -13 98 45 0 57 -60 85
-100 45z"/>
<path d="M6667 552 c-19 -21 -22 -54 -7 -83 12 -22 78 -27 98 -7 17 17 15 74
-4 92 -21 22 -67 20 -87 -2z"/>
<path d="M6685 1558 c-27 -15 -35 -28 -35 -60 0 -50 70 -77 103 -40 20 22 22
75 5 90 -23 17 -52 22 -73 10z"/>
<path d="M6667 882 c-18 -19 -22 -59 -9 -79 14 -22 57 -32 83 -19 30 15 39 75
14 100 -22 21 -68 20 -88 -2z"/>
<path d="M6783 730 c-27 -11 -39 -53 -25 -85 25 -53 112 -35 112 23 0 51 -42
80 -87 62z"/>
<path d="M6770 1380 c-22 -22 -24 -37 -10 -74 8 -22 16 -26 48 -26 46 0 62 14
62 55 0 58 -60 85 -100 45z"/>
<path d="M6775 386 c-31 -31 -32 -70 -3 -90 47 -33 101 -10 101 43 0 60 -57
87 -98 47z"/>
<path d="M6770 1050 c-11 -11 -20 -31 -20 -45 0 -29 32 -65 58 -65 34 0 62 29
62 65 0 57 -60 85 -100 45z"/>
<path d="M6872 224 c-43 -30 -15 -114 38 -114 28 0 60 35 60 65 0 29 -32 65
-58 65 -10 0 -28 -7 -40 -16z"/>
<path d="M6867 882 c-37 -40 -9 -102 46 -102 34 0 57 24 57 60 0 52 -69 79
-103 42z"/>
<path d="M6883 1560 c-27 -11 -39 -53 -25 -85 25 -53 112 -35 112 23 0 51 -42
80 -87 62z"/>
<path d="M6872 554 c-26 -18 -30 -65 -6 -88 22 -23 81 -21 94 3 16 30 12 59
-10 81 -24 24 -48 25 -78 4z"/>
<path d="M6862 1210 c-29 -46 0 -100 54 -100 47 0 72 71 36 103 -26 24 -74 22
-90 -3z"/>
</g>
</svg>
