<?xml version="1.0" standalone="no"?>
<svg version="1.0" xmlns="http://www.w3.org/2000/svg"
 width="202.40pt" height="248.00pt" viewBox="813.80 323.00 202.40 248.00"
 preserveAspectRatio="xMidYMid meet">

<g transform="translate(0.000000,559.000000) scale(0.100000,-0.100000)"
fill="#000000" stroke="none">
<path d="M8515 1716 c-21 -15 -25 -67 -5 -90 19 -24 76 -20 94 6 21 30 20 54
-4 78 -23 23 -58 26 -85 6z"/>
<path d="M8509 1379 c-16 -16 -20 -28 -15 -52 8 -37 20 -47 63 -47 55 0 82 61
43 100 -26 26 -65 25 -91 -1z"/>
<path d="M8610 880 c-39 -39 -12 -100 44 -100 40 0 56 15 56 55 0 58 -60 85
-100 45z"/>
<path d="M8607 1212 c-46 -50 12 -121 78 -96 28 11 37 51 20 85 -13 23 -22 29
-49 29 -19 0 -40 -8 -49 -18z"/>
<path d="M8606 388 c-20 -28 -20 -48 0 -76 23 -34 84 -28 102 10 11 23 10 32
-3 58 -13 24 -22 30 -50 30 -24 0 -39 -7 -49 -22z"/>
<path d="M8615 1545 c-14 -13 -25 -33 -25 -45 0 -27 35 -60 63 -60 54 0 79 84
35 114 -31 22 -45 20 -73 -9z"/>
<path d="M8712 1050 c-55 -52 11 -137 73 -96 36 24 37 70 3 99 -27 22 -49 22
-76 -3z"/>
<path d="M8710 1710 c-39 -39 -14 -100 43 -100 33 0 57 24 57 59 0 55 -61 80
-100 41z"/>
<path d="M8717 719 c-16 -12 -27 -30 -27 -45 0 -29 32 -64 59 -64 30 0 64 33
64 64 0 53 -54 79 -96 45z"/>
<path d="M8707 552 c-23 -25 -21 -58 3 -82 20 -20 55 -26 77 -12 22 14 32 57
19 83 -15 32 -74 39 -99 11z"/>
<path d="M8716 229 c-15 -12 -26 -30 -26 -45 0 -29 33 -64 60 -64 25 0 70 42
70 65 0 20 -44 65 -63 65 -8 0 -26 -9 -41 -21z"/>
<path d="M8710 1380 c-41 -41 -13 -100 48 -100 22 0 36 7 48 25 40 61 -43 128
-96 75z"/>
<path d="M8807 392 c-37 -41 -11 -102 43 -102 36 0 60 24 60 60 0 16 -7 36
-16 44 -21 22 -67 20 -87 -2z"/>
<path d="M8830 1233 c-41 -14 -54 -78 -22 -106 40 -37 102 -11 102 42 0 46
-40 78 -80 64z"/>
<path d="M8812 884 c-34 -23 -31 -79 6 -98 29 -14 69 -6 84 17 14 22 8 64 -10
80 -23 21 -51 22 -80 1z"/>
<path d="M8809 1549 c-29 -29 -23 -79 14 -99 24 -13 30 -13 55 0 37 21 44 81
10 104 -30 22 -54 20 -79 -5z"/>
<path d="M8910 1050 c-54 -54 12 -137 76 -95 17 11 24 25 24 49 0 59 -59 87
-100 46z"/>
<path d="M8910 1710 c-53 -53 13 -126 81 -90 13 7 19 21 19 44 0 59 -59 87
-100 46z"/>
<path d="M8916 229 c-62 -49 3 -138 70 -94 32 21 33 77 2 99 -29 21 -40 20
-72 -5z"/>
<path d="M8910 1380 c-41 -41 -16 -100 44 -100 41 0 56 15 56 56 0 60 -59 85
-100 44z"/>
<path d="M8906 551 c-34 -38 -2 -101 52 -101 42 0 71 77 40 108 -19 19 -73 14
-92 -7z"/>
<path d="M8925 728 c-41 -23 -47 -66 -15 -98 28 -28 64 -25 89 6 26 32 26 46
4 72 -23 26 -53 34 -78 20z"/>
<path d="M9007 882 c-38 -42 -8 -102 51 -102 34 0 52 21 52 63 0 50 -70 76
-103 39z"/>
<path d="M9007 392 c-38 -42 -8 -102 51 -102 34 0 52 22 52 64 0 51 -68 76
-103 38z"/>
<path d="M9010 1550 c-39 -39 -11 -110 43 -110 54 0 80 78 37 112 -29 23 -55
23 -80 -2z"/>
<path d="M9007 1212 c-24 -26 -21 -68 5 -86 61 -43 123 18 88 85 -14 25 -71
26 -93 1z"/>
<path d="M9107 1712 c-37 -40 -9 -102 46 -102 34 0 57 24 57 60 0 16 -7 36
-16 44 -21 22 -67 20 -87 -2z"/>
<path d="M9107 552 c-49 -54 17 -127 83 -92 26 14 34 57 15 86 -19 30 -74 33
-98 6z"/>
<path d="M9117 229 c-52 -40 -18 -118 46 -105 37 8 44 13 52 47 4 17 0 32 -12
46 -28 32 -56 36 -86 12z"/>
<path d="M9125 728 c-41 -23 -47 -66 -15 -98 37 -37 93 -20 105 32 5 21 1 33
-19 52 -28 29 -41 31 -71 14z"/>
<path d="M8275 2226 c-16 -11 -17 -22 -12 -82 8 -89 45 -409 106 -909 27 -220
61 -501 76 -625 64 -542 65 -549 103 -592 14 -17 55 -18 600 -18 l585 0 24 28
c30 35 38 68 58 237 17 145 23 202 50 420 8 72 27 229 41 350 13 121 36 312
49 425 14 113 29 248 35 300 6 52 15 127 20 165 30 224 32 276 14 296 -17 18
-45 19 -874 19 -703 0 -859 -2 -875 -14z m1660 -118 c-5 -30 -12 -94 -45 -393
-16 -140 -17 -142 -45 -149 -59 -15 -70 -93 -17 -120 l28 -14 -12 -98 c-9 -70
-17 -100 -29 -107 -28 -15 -37 -56 -20 -90 8 -16 15 -45 15 -64 0 -33 -1 -34
-22 -19 -30 21 -54 20 -78 -4 -26 -26 -25 -65 1 -91 17 -17 28 -20 56 -14 l35
6 -7 -40 c-3 -22 -10 -70 -13 -108 -5 -51 -11 -68 -22 -68 -33 -1 -60 -18 -67
-42 -8 -34 16 -77 45 -81 19 -3 22 -8 18 -35 -3 -18 -10 -72 -16 -122 -6 -49
-15 -121 -20 -160 -5 -38 -12 -97 -16 -130 -4 -33 -11 -66 -16 -73 -8 -9 -128
-12 -539 -12 -597 0 -541 -9 -553 85 -3 28 -15 127 -26 220 -11 94 -23 182
-26 197 -5 23 -2 28 13 28 26 0 63 36 63 61 0 28 -47 72 -70 66 -21 -5 -20 -9
-39 138 -5 44 -8 81 -6 83 2 2 12 -2 23 -9 27 -17 68 1 84 36 10 22 8 30 -9
53 -24 33 -54 39 -86 17 -24 -15 -25 -15 -31 16 -4 23 -1 38 14 56 28 35 25
58 -10 95 -18 18 -30 42 -30 57 0 14 -3 56 -6 92 -6 64 -6 66 18 72 16 4 30
19 38 37 10 25 10 34 -4 55 -9 13 -31 28 -49 33 -31 8 -32 10 -38 73 -3 35
-14 123 -23 194 -18 142 -36 286 -36 298 0 4 356 7 790 7 l791 0 -6 -32z"/>
<path d="M9110 1050 c-11 -11 -20 -31 -20 -45 0 -28 35 -65 62 -65 23 0 68 43
68 65 0 23 -45 65 -70 65 -11 0 -29 -9 -40 -20z"/>
<path d="M9110 1380 c-28 -28 -25 -64 7 -89 30 -24 58 -20 86 12 50 57 -39
131 -93 77z"/>
<path d="M9207 1212 c-37 -40 -9 -102 46 -102 34 0 57 24 57 60 0 16 -7 36
-16 44 -21 22 -67 20 -87 -2z"/>
<path d="M9207 392 c-37 -41 -11 -102 43 -102 36 0 60 23 60 59 0 54 -68 82
-103 43z"/>
<path d="M9223 1560 c-44 -18 -44 -85 0 -110 24 -13 30 -13 55 0 36 20 42 70
13 99 -23 23 -34 24 -68 11z"/>
<path d="M9207 882 c-21 -23 -22 -66 -1 -86 22 -23 81 -21 94 3 35 66 -45 136
-93 83z"/>
<path d="M9310 1050 c-52 -52 5 -129 70 -95 16 9 31 23 31 33 5 71 -55 108
-101 62z m53 -57 c-4 -10 -2 -14 5 -9 6 3 13 2 17 -4 3 -5 3 -10 -2 -11 -4 0
-18 -2 -30 -5 -13 -2 -23 1 -23 7 0 5 4 8 9 5 5 -3 11 3 14 14 3 11 8 20 11
20 3 0 2 -7 -1 -17z"/>
<path d="M9324 727 c-40 -22 -46 -65 -14 -97 41 -41 100 -13 100 47 0 45 -46
72 -86 50z"/>
<path d="M9310 1380 c-35 -35 -25 -81 21 -99 39 -14 73 6 77 48 6 62 -55 94
-98 51z"/>
<path d="M9306 554 c-22 -21 -20 -60 4 -84 40 -40 100 -16 100 40 0 36 -24 60
-60 60 -16 0 -36 -7 -44 -16z"/>
<path d="M9330 243 c-42 -15 -53 -70 -20 -103 25 -25 51 -25 80 -2 53 43 5
128 -60 105z"/>
<path d="M9419 1227 c-39 -20 -42 -85 -5 -109 36 -24 96 11 96 55 0 42 -52 73
-91 54z"/>
<path d="M9413 402 c-22 -14 -32 -57 -19 -83 15 -30 75 -39 100 -14 20 21 21
69 0 89 -16 17 -61 21 -81 8z"/>
<path d="M9407 882 c-19 -21 -22 -54 -7 -83 13 -24 72 -26 94 -3 22 21 20 60
-4 84 -25 25 -62 26 -83 2z"/>
<path d="M9517 229 c-48 -37 -25 -109 34 -109 29 0 62 34 62 64 0 53 -54 79
-96 45z"/>
<path d="M9512 1384 c-37 -26 -22 -101 21 -105 50 -5 77 17 77 62 0 29 -31 59
-60 59 -9 0 -26 -7 -38 -16z"/>
<path d="M9510 2063 c-33 -7 -173 -272 -192 -364 -14 -68 -6 -113 31 -171 41
-65 100 -92 189 -86 170 10 245 162 166 339 -46 103 -148 278 -164 281 -8 2
-22 3 -30 1z m70 -255 c59 -124 68 -164 46 -206 -22 -43 -54 -62 -104 -62 -37
0 -50 6 -78 34 -54 54 -46 105 39 264 21 39 41 72 43 72 3 0 27 -46 54 -102z"/>
<path d="M9506 551 c-40 -44 6 -113 66 -98 33 9 51 54 34 88 -16 32 -74 38
-100 10z"/>
<path d="M9510 720 c-30 -30 -24 -79 13 -100 24 -13 30 -13 55 0 20 12 28 24
30 51 3 39 -8 54 -50 64 -20 5 -32 1 -48 -15z"/>
<path d="M9512 1054 c-34 -23 -27 -83 11 -104 24 -13 30 -13 55 0 37 21 44 81
10 104 -28 20 -48 20 -76 0z"/>
<path d="M9608 889 c-23 -13 -24 -81 -3 -99 36 -30 105 -1 105 44 0 53 -55 83
-102 55z"/>
<path d="M9606 394 c-9 -8 -16 -28 -16 -44 0 -36 24 -60 60 -60 36 0 60 23 60
59 0 52 -68 82 -104 45z"/>
<path d="M9600 1211 c-26 -50 -1 -101 49 -101 54 0 82 68 43 103 -26 24 -79
22 -92 -2z"/>
<path d="M9710 1380 c-22 -22 -26 -51 -10 -81 8 -14 21 -19 48 -19 46 0 62 14
62 55 0 58 -60 85 -100 45z"/>
</g>
</svg>
