<?xml version="1.0" standalone="no"?>
<svg version="1.0" xmlns="http://www.w3.org/2000/svg"
 width="170.70pt" height="308.90pt" viewBox="560.50 -12.00 170.70 308.90"
 preserveAspectRatio="xMidYMid meet">

<g transform="translate(0.000000,559.000000) scale(0.100000,-0.100000)"
fill="#000000" stroke="none">
<path d="M5982 4560 c-59 -24 -37 -120 28 -120 33 0 60 28 60 61 0 30 -9 43
-37 58 -25 13 -21 13 -51 1z"/>
<path d="M6016 4879 c-15 -12 -26 -30 -26 -45 0 -31 33 -64 65 -64 30 0 65 32
65 60 0 24 -42 70 -63 70 -8 0 -26 -9 -41 -21z"/>
<path d="M6067 4380 c-34 -27 -34 -54 -1 -86 19 -20 31 -24 52 -19 69 16 70
104 2 120 -18 4 -34 0 -53 -15z"/>
<path d="M6068 4713 c-30 -35 -31 -61 -3 -89 20 -20 32 -24 53 -19 52 12 69
68 32 105 -25 25 -62 26 -82 3z"/>
<path d="M6165 4546 c-11 -8 -18 -26 -18 -46 0 -56 62 -81 103 -40 55 55 -22
132 -85 86z"/>
<path d="M6165 4216 c-11 -8 -18 -26 -18 -46 0 -55 70 -82 106 -42 52 57 -25
134 -88 88z"/>
<path d="M6219 4882 c-28 -24 -31 -79 -4 -98 27 -20 62 -17 85 6 27 27 25 56
-5 85 -29 30 -45 31 -76 7z"/>
<path d="M6267 4715 c-53 -53 -4 -133 64 -105 36 15 48 53 28 89 -18 31 -68
40 -92 16z"/>
<path d="M6266 4376 c-15 -14 -26 -32 -26 -41 0 -9 11 -27 26 -41 19 -20 31
-24 52 -19 38 10 52 24 52 54 0 35 -18 58 -52 66 -21 5 -33 1 -52 -19z"/>
<path d="M6378 4554 c-54 -29 -30 -114 32 -114 33 0 60 28 60 61 0 30 -9 43
-37 58 -26 13 -22 14 -55 -5z"/>
<path d="M6355 4200 c-13 -26 -14 -35 -3 -58 27 -55 118 -34 118 28 0 35 -28
60 -68 60 -25 0 -35 -6 -47 -30z"/>
<path d="M6416 4879 c-15 -12 -26 -30 -26 -45 0 -31 33 -64 65 -64 30 0 65 32
65 60 0 24 -42 70 -63 70 -8 0 -26 -9 -41 -21z"/>
<path d="M5989 5563 c-20 -54 -118 -399 -133 -473 -9 -41 -22 -108 -31 -147
-100 -474 3 -750 370 -994 175 -116 165 -85 165 -543 0 -200 -3 -372 -6 -381
-8 -21 -55 -44 -194 -95 -63 -23 -129 -48 -147 -57 -58 -27 -78 -116 -29 -128
11 -3 248 -4 525 -3 553 3 533 1 517 62 -10 40 -48 70 -119 95 -100 36 -241
91 -253 99 -31 20 -34 54 -34 409 0 203 4 373 10 392 13 48 40 73 160 154 63
41 140 106 192 158 72 73 95 105 132 181 58 118 78 206 78 333 0 184 -72 524
-183 873 l-30 92 -490 0 -489 0 -11 -27z m919 -80 c26 -65 86 -280 118 -423
27 -117 32 -156 23 -159 -24 -8 -59 -50 -59 -71 0 -28 35 -60 65 -60 35 0 42
-26 16 -54 -27 -29 -28 -81 -1 -98 15 -10 20 -24 20 -55 0 -24 -2 -43 -5 -43
-2 0 -15 11 -29 25 -30 30 -45 31 -80 4 -30 -23 -33 -54 -10 -88 17 -23 52
-26 96 -7 15 7 14 0 -6 -52 -33 -83 -88 -170 -141 -222 l-45 -44 0 29 c0 37
-26 65 -61 65 -35 0 -59 -24 -59 -58 0 -38 13 -53 51 -61 l33 -7 -35 -27 c-32
-24 -39 -25 -66 -15 -44 17 -83 -9 -83 -55 0 -25 -8 -38 -36 -61 -20 -16 -48
-53 -63 -85 l-26 -56 3 -400 c3 -316 7 -405 18 -426 23 -45 81 -85 161 -110
l75 -24 -283 -5 c-156 -3 -288 -3 -293 -1 -5 2 24 15 64 29 41 13 91 36 111
49 69 46 69 44 69 495 0 402 0 403 -24 453 -13 28 -33 59 -44 69 -17 15 -21
26 -16 55 10 64 -53 105 -98 64 -18 -16 -21 -16 -51 2 -44 25 -147 115 -147
127 0 6 -22 33 -50 59 -42 40 -50 54 -50 84 0 26 -7 43 -26 60 -25 23 -45 82
-58 173 -6 38 -4 42 16 42 29 0 68 38 68 67 0 28 -33 63 -60 63 -24 0 -25 11
-4 56 9 19 14 46 11 62 -8 42 56 332 119 532 14 47 28 95 31 108 l5 22 413 0
413 0 10 -27z"/>
<path d="M6465 4045 c-14 -13 -25 -30 -25 -38 0 -26 41 -67 66 -67 31 0 64 33
64 65 0 30 -32 65 -60 65 -12 0 -32 -11 -45 -25z"/>
<path d="M6468 4713 c-30 -34 -31 -61 -4 -88 14 -14 34 -25 46 -25 50 0 80 79
42 113 -24 22 -65 22 -84 0z"/>
<path d="M6471 4383 c-31 -25 -31 -71 -1 -95 29 -23 55 -23 80 2 55 55 -19
142 -79 93z"/>
<path d="M6566 4544 c-37 -37 -7 -104 47 -104 48 0 73 52 47 101 -13 24 -72
26 -94 3z"/>
<path d="M6567 4212 c-21 -23 -22 -66 -1 -86 22 -23 81 -21 94 3 15 29 12 67
-6 85 -21 22 -67 20 -87 -2z"/>
<path d="M6615 4875 c-14 -13 -25 -33 -25 -45 0 -27 35 -60 63 -60 29 0 67 34
67 61 0 24 -43 69 -65 69 -9 0 -27 -11 -40 -25z"/>
<path d="M6672 4714 c-42 -29 -14 -114 39 -114 21 0 57 30 60 50 8 68 -44 102
-99 64z"/>
<path d="M6683 4390 c-23 -9 -37 -45 -31 -76 5 -26 49 -48 79 -41 51 13 58 91
10 116 -23 13 -28 13 -58 1z"/>
<path d="M6766 4544 c-9 -8 -16 -28 -16 -43 0 -52 61 -79 104 -46 25 19 26 73
1 91 -25 19 -70 18 -89 -2z"/>
<path d="M6815 4875 c-30 -29 -32 -58 -5 -85 37 -37 93 -20 105 32 5 21 1 33
-19 52 -31 32 -50 33 -81 1z"/>
<path d="M6870 4710 c-37 -37 -20 -93 32 -105 21 -5 33 -1 52 19 31 31 32 45
5 80 -25 31 -61 34 -89 6z"/>
<path d="M6880 4387 c-36 -18 -41 -78 -8 -101 29 -21 51 -20 76 2 34 29 37 58
8 87 -28 28 -40 30 -76 12z"/>
</g>
</svg>
